<?xml version="1.0" encoding="UTF-8"?>
<svg enable-background="new 189 227.1 973.3 388.8" version="1.1" viewBox="189 227.1 973.3 388.8" xml:space="preserve" xmlns="http://www.w3.org/2000/svg">
<style type="text/css">
	.st0{fill:#5E9A16;}
	.st1{fill:#5F9B17;}
	.st2{fill:#5D9A15;}
	.st3{fill:#5D9914;}
	.st4{fill:#639D1D;}
</style>

	<path class="st0" d="m211.2 424c1 83.5 56.5 153 136.5 171.9 74 17.5 150.6-15 190.6-81.3 2.1-3.5 4.5-4.3 8-4 1.7 0.1 2 0.7 1.3 2.2-0.6 1-1.1 2.1-1.6 3.1-33.2 56.8-82.2 90.2-147.5 98.4-45.3 5.7-88.1-3.9-126.3-29.1-34.1-22.5-57.2-54.5-71.1-92.8-40.7-112.3 24.8-233.6 141.2-260.9 45.1-10.6 88-1.7 128.2 20.3 34.1 18.6 59.9 45.7 78 80 2.5 4.8 2.4 4.5-3 4.9-4.3 0.4-6.3-1.4-8.6-4.9-38.3-58.1-92.4-86.5-161.8-82.7-80.7 4.3-147.9 66.3-161.3 146.5-1.6 9.7-2 19.5-2.6 28.4z"/>
	<path class="st0" d="m792 390.2c0-11.8 0.1-23.7-0.1-35.5 0-3.2 0.7-4.4 4.1-4.2h18.5c3.5-0.2 4.1 1.2 4.1 4.3-0.1 10.5-0.1 21 0 31.5 0 1 0.1 2.7 0.4 2.8 1.6 0.3 1.5-1.4 2-2.3 4.8-8.3 12.6-11.6 21.5-12.8 7.9-1 16-1.1 23.8 1 7.5 2 13.8 5.8 17.2 13.3 0.3 0.6 0.8 1.5 1 1.5 1.2-0.3 0.6-1.3 0.6-2l-0.1-32.5c-0.1-4.1 0.6-4.9 3.9-4.8l20.1-0.1c3-0.1 3.1 0.8 3 4v23c0 0.9-0.6 2.2 0.6 2.6 0.4 0.1 1.2-0.8 1.8-1.3 12-10.3 30.3-5.4 35.5 9.6 1.4 4.1 2.1 8.4 2.1 12.8 0 0.6-0.5 3.4 1.3 1.5 8.1-8.5 18.5-7.9 28.9-8 1.9 0 5.1 1.9 5.5-0.9 0.4-2.7-2.4-4.5-5.2-5.2-7.5-1.9-15-1.2-22 1.9-4.5 2-4.7 0.3-4.6-3.5 0.1-11.3 0-11.7 11.3-12.9 9.1-1 18.3-1.2 27.4 0.8 11.8 2.5 17.6 9.2 18 21.2 0.3 10 0 20 0.1 30 0 2.9-0.4 3.5-3.8 3.6h-17c-3.8 0.1-3.8-0.5-4-3.8 0.1-0.8 0.1-2-0.3-2.3-1.2-0.6-1.6 0.8-2.3 1.4-7.2 6.4-18.9 7.8-27.5 3.4-2.7-1.4-5.6-3.3-6.3-6.1-2-7.7-3.4-2.4-5.1 0-8.1 11.2-25.8 11.7-34.5 1-0.4-0.5-0.3-1.2-1.2-1.3-1 0.4-0.6 1.4-0.5 2.1 0 5.7 0 5.7-6.1 5.7h-14.5c-3.4 0.2-4.8-0.7-4.5-4.3v-11c0-0.5 0.1-1.6-0.6-1.5-0.2 0-0.5 0.7-0.7 1.1-6 15.2-24 18.5-40.4 16.3-10.1-1.3-18.4-5.6-23.1-15.3-0.3-0.5-0.8-1.4-1-1.4-1.1 0.2-0.7 1.3-0.7 2-0.1 3.5-0.2 7 0 10.5 0.2 2.9-1 3.7-3.8 3.6h-19c-3.2 0.1-3.9-0.9-3.9-4 0.2-11.9 0.1-23.7 0.1-35.5zm55.1 20.7c0.7 2.2 2 3.8 4.6 3.8 2.3 0 3.9-1.2 4.5-3.2 1.9-6.2 1.9-12.4 0.3-18.6-0.6-2.2-2.4-3.5-4.9-3.4-2.6 0.1-3.9 1.5-4.6 3.7-1.6 5.2-1.2 13.2 0.1 17.7zm77-9c0-2.7 0-4.9-0.7-7-0.9-3-2.7-5.1-6-5-3 0.1-4.8 2-5.5 4.9-1.2 4.8-1.3 9.6 0.3 14.2 0.8 2.4 2.6 3.8 5.3 3.8 2.6 0 4.4-1.3 5.4-3.7s1.3-5.1 1.2-7.2zm59.8 3.6c-6.9 0.3-9.9 2.2-9.8 6.2s2.7 5 6 4.9c4.5-0.1 8.3-4.6 8-9.1-0.3-3.5-3-1.3-4.2-2z"/>
	<path class="st0" d="m430 390.1c0-11.8 0.1-23.7-0.1-35.5-0.1-3.3 0.9-4.3 4.1-4.1h19c3.2-0.1 3.9 1.1 3.9 4-0.2 7.5-0.1 15 0 22.5 0 0.9-0.5 2.1 0.5 2.7 0.3 0.2 1.3-0.8 1.8-1.3 6.3-5.4 13.7-5.8 21.2-4.2 7.8 1.6 11.7 7 12.1 15.6 0.2 4 0 8 0.1 12 0 1.1 0.2 2.9 1.7 1.2 8.2-9.1 18.9-8.4 29.6-8.4 1.6 0 4.5 1.9 4.9-1.1 0.4-2.5-2-4.1-4.4-4.8-7.7-2.3-15.3-1.4-22.5 1.6-4.3 1.8-5.1 1.1-5-3.4 0.3-11 0-11.3 11-12.7 9.7-1.2 19.6-1.4 29.3 1.1 5.8 1.5 10.8 4.3 14 9.7 0.2 0.4 0.6 3.3 1.9 0.6 4.4-8.8 12.7-10.7 21.3-11.7 8.1-0.9 16.3-0.4 24.4 0.9 3.3 0.5 4.5 1.9 4.1 5.2l-0.6 8.9c-1.7 2.8-5.9-0.3-9.1-0.8-4.3-0.6-8.6-0.8-12.9-0.2-1.6 0.2-3.4 0.9-3.4 3 0 2 2 2.1 3.3 2.4 4.6 0.9 9.2 1.4 13.7 2.5 4.6 1.1 8.9 3 11.4 7.4 1.1 2 2 2.1 3.8 1 6.4-3.9 12.9-7.6 19.3-11.5 0.6-0.4 1.7-1.1 1.6-1.5-0.3-1-1.4-0.5-2.1-0.5-6.2 0-12.3-0.2-18.5 0.1-3.2 0.1-3.8-1-3.8-4-0.1-12.1-0.1-12.1 4.2-12.2h47.4c3.1 0 4.7 0.7 4.5 3.9 0 0 0.9 12.7-1.3 17.8-1.5 2.3-9.2 6.6-13.9 9.9-2.5 1.7-5.1 3.2-7.5 4.9-0.8 0.5-2.2 0.8-2 1.9 0.6 0.6 1.7 0.5 2.6 0.5 6.2 0.1 12.3 0.2 18.5 0 2.9-0.1 4 0.6 4 3.8 0.1 12.3 0.1 12.3-5.5 12.2l-46 0.2c-5 0.2-6.6-1.4-5.8-6.1 0.1-0.6 0.1-1.5-0.2-1.9-0.6-0.6-1.1 0.2-1.6 0.6-10.3 9.3-22.8 8.9-35.4 8-3.1-0.2-6.2-1.3-9.3-1.5-5.4-0.4-10.7 1.4-16.2 0.8-3.3-0.3-6.7 0-10-0.1-1.4 0-3.3 0.4-3.1-2 0.5-7-2.1-2.6-3.9-1.1-7.6 6.2-21.6 6-29.3-0.5-1.8-1.5-3.4-3.7-3.2 1 0.1 2.8-1.7 2.7-3.6 2.7l-19.5 0.1c-3.1 0.1-3.5-1.2-3.5-3.8 0.1-8.8 0.1-17.7 0-26.5 0-1.8-0.1-3.7-0.5-5.4-0.5-2.2-2.1-3.3-4.4-3.1-2.9 0.2-4.1 2.1-4.1 4.7-0.1 7.8-0.3 21.4-0.2 29.2 0.1 4.9 0.1 4.9-6.3 4.8l-15.2 0.1c-4.7 0.6-5.4-1.4-5.3-5.6 0.2-11.3 0-22.7 0-34zm142.7 26.6h1.5c3.2-0.3 8 0.4 8.3-3.5 0.2-3.2-4.5-3-7.3-3.6-6.9-1.5-14.2-2.2-19.6-7.7-1.8-1.8-1.5 0.3-1.6 1.2-0.9 8.6 0 9.8 8.3 12.1 3.4 0.9 6.9 1.6 10.4 1.5zm-47.3-11.1c-7.1 0.2-10.3 2.4-9.9 6.6 0.3 3.6 2.7 4.6 5.9 4.6 4.4 0 8.3-4.3 8.2-8.9-0.1-3.7-2.8-1.9-4.2-2.3z"/>
	<path class="st0" d="m426.9 390.2c0 11.7-0.1 23.3 0.1 35 0.1 3.6-1 4.6-4.5 4.4h-18c-3.4 0.1-4.8-0.7-4.5-4.3 0.3-4.5-0.1-9 0.1-13.5 0.1-2.7-0.9-3.3-3.4-3.3-9.7 0.1-19.3 0-29 0.1-1 0-2.7-0.6-2.9 1-0.1 1 0.5 2.3 1.1 3.1 2.3 3 5.9 3.6 9.4 3.9 6.4 0.5 12.7-0.1 18.7-2.3 2.2-0.8 3.1-0.5 2.9 1.9v1c0.3 11.2 0.3 11.2-10.7 12.7-8.1 1.1-16.3 1.4-24.4 0-13.6-2.4-21-9.5-23.4-22.9-0.5-2.7-1.3-3.5-4-3.5-7.7 0.2-15.3 0.2-23 0-3.2-0.1-4.4 0.7-4.3 4.1 0.3 6-0.1 12 0.1 18 0.1 3-0.6 4.1-3.9 4-7-0.2-14-0.2-21 0-2.6 0.1-3.5-0.7-3.4-3.4 0.1-22.3 0.1-44.6 0-67 0-2.5 0.6-3.5 3.3-3.5 18.8 0.1 37.6 0.1 56.5 0 2.7 0 3.3 1 3.3 3.5 0 4.7-0.1 11.8-0.1 11.8-0.1 2.5-0.6 2.8-3.6 2.8-5.5 0.1-20.4 0.1-26.9 0-4.1-0.1-4.4 0.2-4.3 3.6v5c-0.1 2.8 0.7 3.2 3.1 3.2 9.8-0.1 19.7-0.1 29.5 0.1 1.9 0 2.6-0.9 3.5-2 2.6-3.4 6.1-5.6 10-7.2 8.8-3.5 17.9-3.7 27-2.2s15.1 7.2 18.3 15.9c0.2 0.6 0 1.8 1.2 1.7 0.1 0 0.1-1.2 0.1-1.9 0-11.8 0.1-23.7-0.1-35.5 0-3.1 0.8-4 3.9-3.9h19c3.4-0.1 4.2 1.1 4.1 4.3 0.1 11.7 0.2 23.5 0.2 35.3zm-56.4 6.9c1.7 0 6.9 0.8 6.9-2.9 0.3-4.5-2.7-8-6.3-8-3.7-0.1-7.2 3.7-7 8.1 0 3.6 4.3 2.8 6.4 2.8z"/>
	<path class="st1" d="m958.9 463.9c50.3 0 102.6 0 153-0.1 2.1 0.1 2.1 0.1 2.3 2.1v10.9c0 0.7-0.3 1.5-0.8 2-3.9 3.9-17.1 11.1-21.2 13.7-3.5 2.2-3.5 2.2-7.3 0.1l-18.9-10.2c-3.8-2.4-3.8-2.4-7.7-0.1l-18.5 9.9c-4.4 2.5-4.4 2.5-8.6-0.1l-18.9-10.2c-3.1-1.9-3.1-1.9-6.4 0 0 0-19.6 10.6-19.3 10.4-4.3 2.4-4.3 2.4-7.7 0.1l-18.4-10c-4.2-2.7-4.2-2.7-8.5 0.1l-18.5 9.9c-3.8 2.3-3.8 2.3-7.3-0.1-6.5-4-11.2-6.7-17.8-10.7-3-1.9-3.3-1.4-5.9 0l-18 11.2c-3.4 1.7-3.4 1.7-6.4-0.1-5.4-3.3-11.2-7.5-16.5-10.9-3.2-2.1-3.2-2.1-6.8 0.1-0.8 0.6-20.2 14.8-20.2 14.8-1.1 0.7-1.2 0.9-3.3 0.9h-26.1c-2.5-0.1-2.5 0-2.4-2.3v-28.8c0-3.1-0.3-2.8 3-2.8 50.3 0.2 102.8 0.2 153.1 0.2z"/>
	<path class="st0" d="m1015.9 401.9c0-7.7 0.1-15.3-0.1-23-0.1-3.1 0.6-4.5 4-4.3h16.5c3.8-0.2 5.2 1 4.6 4.7-0.2 1.1-0.1 2.3 0 3.5 0 0.6 0.1 1.7 0.3 1.8 1.1 0.3 1.1-0.9 1.5-1.5 3.3-5.6 13.2-9.2 18.7-7.8 2.6 1 14.9-2.7 24.5-1.9 9.6 0.7 19 1.1 26.5 8.2 1.9 1.8 1.7 0.5 1.7-1-0.1-5.5 0.2-5.6 6.4-5.8 3.9-0.1 3.3-0.7 3.4-3.3 0.2-9.5 0.4-9.5 9.4-12.3 4.1-1.3 8.4-2.3 12.4-3.8 4.3-1.7 5.2-0.1 4.9 3.9s0.1 8-0.1 12c-0.1 2.8 0.7 3.7 3.6 3.7 8.1 0.1 7.9-0.8 8.1 8.5 0.2 7.4 0 7.6-7.2 7.4-3.4-0.1-4.8 0.7-4.5 4.3s0 7.3 0.1 11c0.2 5.5 2.1 7.5 7.4 6.7 3.9-0.5 4.6 0.9 4.2 4.2v0.5c0 11.9 0.1 12-11.9 13.2-3.3 0.3-6.7 0.3-10 0.1-9.6-0.6-15.8-6.9-16.3-16.9-0.4-6.5-0.3-13-0.1-19.5 0.2-3.5-1.6-3.6-4.2-3.6-3.6-0.1-2.4 2.1-2.3 3.9 0.1 10.5 0 21 0.2 31.5 0.1 3-1.1 3.6-3.8 3.6h-17c-3 0.1-4.4-0.6-4-3.8 0.1-0.8 0.1-1.9-0.3-2.3-0.9-0.7-1.4 0.5-1.9 1-7.1 7.1-15.7 7.4-24.6 5-7.1-1.9-11-7-11.5-14-0.6-7.8 3.2-14.6 10.2-17.9 7.5-3.6 15.5-3.2 23.5-3 1.5 0 3.9 1.3 4.4-0.6 0.6-2.3-1.4-4-3.4-4.9-4.9-2.2-10.1-1.8-15.2-1.1-3.1 0.4-6.1 1.6-9.1 2.5-0.6 0.2-1.7 0.4-1.8 0.8-0.1 2-3.5 3-9.2 4.2-6.3 1.1-10.9 6.3-11.2 13.4-0.3 5.6-0.2 11.3-0.1 17 0.1 2.8-0.9 3.8-3.7 3.7h-19.5c-3 0.1-3.6-1-3.6-3.8 0.2-8.2 0.1-16.2 0.1-24.2zm68.4 14.8c5.1-0.1 8.8-4.4 8.8-9-0.1-3.2-2.3-2.2-3.9-2.2-6.9 0-10.2 2-10.2 6.1 0 4 2.6 5 5.3 5.1z"/>
	<path class="st0" d="m664.9 401.8c0-7.8 0.1-15.7-0.1-23.5-0.1-2.7 0.6-3.8 3.6-3.7h17c3.5-0.2 5.4 0.5 4.7 4.5-0.1 0.8-0.2 2.4 0.5 2.6 0.2 0.1 1.1-1 1.6-1.5 6.5-7.3 20.1-9.1 28.3-3.7 4.4 2.9 6.3 7.2 6.5 12.3 0.2 4.5 0.1 9 0.2 13.5 0 0.6-0.4 1.4 0.5 1.7 0.3 0.1 0.9-0.3 1.2-0.6 7.9-9.5 18.8-8.6 29.4-8.8 3.6 0.1 4.9 2 5.4-1 0.4-2.5-2.3-4.2-4.9-4.9-7.9-2.1-15.6-1.2-22.9 2-3.8 1.6-4.2 0.3-3.8-2.9v-1c0-11.1-0.1-11.5 10.9-12.6 10.1-1 20.3-1.6 30.2 1.5 10.3 3.2 15.1 9.3 15.4 20.1 0.2 10 0 20 0.1 30 0 3.1-0.9 4.1-4 3.9h-17c-2.6 0.1-4.2-0.4-3.8-3.5 0.1-0.9 0.6-2.2-0.5-2.6s-1.6 1-2.3 1.6c-8.5 7.6-22.7 7.8-31.1 0.4-0.7-0.6-1.7-1.8-2.2-1.6-1.1 0.3-0.6 1.7-0.5 2.6 0.3 2.9-1.2 3.2-3.6 3.2h-19.5c-2.9 0.1-3.8-0.9-3.7-3.7 0.1-8.8 0.1-17.7 0-26.5 0-1.7-0.1-3.3-0.3-5-0.3-2.5-1.9-3.8-4.5-3.7-2.4 0.1-3.7 1.5-3.9 3.7-0.2 3.6-0.2 7.3-0.2 11 0 6.8-0.1 13.7 0 20.5 0.1 2.9-0.9 3.7-3.8 3.7h-19.5c-3 0.1-3.6-1.1-3.6-3.8 0.3-8.2 0.2-16.2 0.2-24.2zm95.2 3.7c-7 0.2-10.3 2.3-10 6.4 0.3 3.9 3 4.8 6.3 4.7 4.3-0.1 7.8-4.3 7.8-8.7-0.1-3.5-2.6-2-4.1-2.4z"/>
	<path class="st2" d="m595.2 493.1c0.1 3.7 0.1 3.7-2.6 3.8h-12.4c-3.5 0-3.4-1-3.3-3.5l0.1-11.5c-0.1-2.7 0.3-2.3-6.2-2.3-6.2 0.1-5.9-0.4-6 1.7v6.7c0 8.8 0 8.8-2.9 8.9l-13.7-0.1c-1.9 0-1.9-1.3-1.9-3.7 0-5.3 0.2-29.9 0-40.1 0-3.7 0.1-4 3.9-4l12.5 0.2c3.1 0.1 2.1 2.2 2 14.4-0.1 2 0.7 2.1 5.6 2.1 6.1-0.1 6.4-0.4 6.4-1.9 0-1.3 0.1-3.2 0.1-6.5 0-8.3-0.3-8.4 3.4-8.4h11.6c3.6 0 3.1-0.1 3.2 3.6-0.1 0.2 0.1 33.9 0.2 40.6z"/>
	<path class="st1" d="m747.1 504.9v-40.2c-0.1-2.7-0.2-3.1 2.2-3.2h9.9c3.5 0 3.9 0 4 3.1-0.2 1.7 0.7 1.6 1.6 0.6 5-6.2 11.4-5.9 17.6-2.8 7.3 3.6 8.3 10.9 8.1 18-0.3 11.7-6.7 18-16.7 17.2-1.9-0.1-3.8-0.4-5.2-1.6-4.8-4.3-5.2-0.4-5.2 2.5 0 12.7 0.6 12.5-2.9 12.7h-10.8c-2.8 0-2.6 0.5-2.6-6.3zm17-22.3c0.3 2.3 1.2 4.2 3.9 4.4 3 0.2 3.9-1.8 4.4-4.3 0.4-2.3 0.3-4.6-0.2-6.9-0.5-2.2-1.7-3.8-3.9-3.8-2.6-0.1-3.7 1.9-4.1 4.2-0.2 1.1-0.2 5.4-0.1 6.4z"/>
	<path class="st0" d="m642 464.4c-0.1-2.2 0-2.8 2.8-2.9l11 0.1c1 0 2.3-0.2 2.3 1.2 0 6.4 1.6 1.8 3.2 0.5 4.8-3.4 9.9-3.6 15.2-1.6 4.8 1.8 5.9 6.1 6 10.6 0.2 7.2 0 14.3 0.1 21.5 0.1 3 0.3 2.9-2.4 3.1h-11.8c-3.2 0.1-3.2-0.3-3.3-3.6 0.1-5.7 0.1-11.3 0-17 0-1.9 0.2-4.4-2.6-4.6-3-0.2-3.4 2.1-3.4 4.4v17c0 3.9-0.5 3.7-3.5 3.8l-10.2 0.1c-3.2 0-3.4-0.2-3.4-3.4 0-1.6 0.1-24.4 0-29.2z"/>
	<path class="st1" d="m623 460.7c10.7 0.7 17.3 6.5 18 15.8 0.9 11-4.4 18.1-15.2 20.6-4 0.9-8 0.9-11.9 0.3-11.6-1.6-17.5-8.7-17-20.1 0.4-10.2 7-16 18.6-16.6 1.2-0.1 6.2-0.1 7.5 0zm-8.1 18.5s-0.3 8.1 4.1 8.1c3.8-0.2 3.8-8.3 3.8-8.3s0.4-7.9-3.7-7.9c-4.7 0-4.2 8.1-4.2 8.1z"/>
	<path class="st1" d="m744.6 484.2v1.5c-0.3 3.6 1.6 9.2-0.8 10.4-3.6 1.8-10 2.5-12.9 0.4-4.7-3.4-7.1 0.3-10.3 1-10.2 2.3-18.2-4-16.4-13.1 1-5 5.2-8.7 11.4-9.6 3.4-0.5 6.9-1 10.4-0.3 0.9 0.2 2.3 0.6 2.6-0.5 0.4-1.2-0.5-2.3-1.5-2.9-3-1.9-6.4-1.5-9.7-1.3-1.1 0.1-2.3 0.4-3.4 0.7-6.2 1.6-6.1 1.7-6-4.9 0.1-2.2 0.6-3.3 2.9-3.8 7.3-1.5 14.5-1.8 21.8-0.2 8.5 1.8 11.8 6.1 11.9 14.6v8zm-17.8-3.1c-3.5 0.7-7.3 0.1-7.2 4.5 0 2.4 1.9 3.3 4.2 3.1 3.2-0.3 4.5-2.5 5-5.3 0.4-2.1-1-2.5-2-2.3z"/>
	<path class="st3" d="m703 493.1c0 3.9-0.1 3.6-3.5 3.8l-9.4 0.1c-4.6 0-4.4 0.2-4.5-3.7 0-11.3 0.2-32.4 0-43.7 0-2.9 0-4 2.7-4l11.6 0.1c2.1-0.1 3.1 0.3 3 2.9l0.1 44.5z"/>
	<path class="st4" d="m753.9 367.4c-2.3 0-6.4 0.1-6.7-0.7-1.1-2.3 1.4-4.1 2.9-6.3 5.1-7.5 8.5-9.9 18.1-10 3.8 0 6.6 0.1 9.9 0.1 0.8 0 1.9 0 2.2 0.5 0.5 0.9-0.6 1.3-1.2 1.8-5.6 4.4-11.2 8.8-16.8 13.3-1.9 1.5-6.3 1.3-8.4 1.3z"/>
	<path class="st4" d="m862.1 350.4c3.2 0.6 6.6 0.1 10 0.1 0.8 0 2 0 2.2 0.5 0.5 1-0.7 1.3-1.3 1.7-5.4 4.4-11 8.6-16.4 13-2.8 2.4-6 1.2-9.5 1.7-1.9-0.1-5.7 0.4-6.1-0.6-1.1-2.2 2.1-4 2.9-6.3"/>
	<path class="st4" d="m1097.6 350.5h9.4c0.8 0 1.9 0 2.2 0.5 0.6 0.9-0.6 1.3-1.2 1.8-5.6 4.4-11 9.1-16.8 13.2-4.4 3.1-9.7 0.9-14.5 1.3-1.7 0.1-1.1-1.3-0.6-2.1 2.8-4.5 5.7-8.9 8.5-13.4 0.9-1.4 2.2-1.2 3.5-1.2 3.2-0.1 6.4-0.1 9.5-0.1z"/>

<path class="st4" d="m847.9 367.4c-2.3 0-6.4 0.1-6.7-0.7-1.1-2.3 1.4-4.1 2.9-6.3 5.1-7.5 8.5-9.9 18.1-10 3.8 0 6.6 0.1 9.9 0.1 0.8 0 1.9 0 2.2 0.5 0.5 0.9-0.6 1.3-1.2 1.8-5.6 4.4-11.2 8.8-16.8 13.3-1.9 1.5-6.3 1.3-8.4 1.3z"/>
</svg>
