<?xml version="1.0" encoding="UTF-8"?>
<svg width="319.8px" height="348.9px" enable-background="new 42.4 254.6 319.8 348.9" version="1.1" viewBox="42.4 254.6 319.8 348.9" xml:space="preserve" xmlns="http://www.w3.org/2000/svg">
<style type="text/css">
	.st0{fill:#BBBBBB;}
</style>
<path class="st0" d="m307.7 363.6c-30.1 0-54.5-24.5-54.5-54.5 0-30.1 24.5-54.5 54.5-54.5 30.1 0 54.5 24.5 54.5 54.5 0.1 30-24.4 54.5-54.5 54.5zm0-87.3c-18 0-32.7 14.7-32.7 32.7s14.7 32.7 32.7 32.7 32.7-14.7 32.7-32.7-14.6-32.7-32.7-32.7z"/>
<path class="st0" d="m307.7 603.5c-30.1 0-54.5-24.5-54.5-54.5 0-30.1 24.5-54.5 54.5-54.5 30.1 0 54.5 24.5 54.5 54.5 0.1 30-24.4 54.5-54.5 54.5zm0-87.3c-18 0-32.7 14.7-32.7 32.7s14.7 32.7 32.7 32.7 32.7-14.7 32.7-32.7-14.6-32.7-32.7-32.7z"/>
<path class="st0" d="m96.9 483.5c-30.1 0-54.5-24.5-54.5-54.5 0-30.1 24.5-54.5 54.5-54.5s54.5 24.5 54.5 54.5c0 30.1-24.5 54.5-54.5 54.5zm0-87.2c-18 0-32.7 14.7-32.7 32.7s14.7 32.7 32.7 32.7 32.7-14.7 32.7-32.7c0-18.1-14.7-32.7-32.7-32.7z"/>
<path class="st0" d="m134.9 418.4c-3.8 0-7.5-2-9.5-5.5-3-5.2-1.2-11.9 4.1-14.9l134.9-76.9c5.2-3 11.9-1.2 14.9 4.1 3 5.2 1.2 11.9-4.1 14.9l-135 76.9c-1.7 0.9-3.5 1.4-5.3 1.4z"/>
<path class="st0" d="m269.8 538.3c-1.8 0-3.7-0.5-5.4-1.4l-134.9-76.9c-5.2-3-7.1-9.6-4.1-14.9 3-5.2 9.6-7.1 14.9-4.1l134.9 77c5.2 3 7.1 9.6 4.1 14.9-2.1 3.5-5.8 5.4-9.5 5.4z"/>
</svg>
