<?xml version="1.0" encoding="UTF-8"?>
<svg width="512px" height="512px" enable-background="new -41 164.9 512 512" version="1.1" viewBox="-41 164.9 512 512" xml:space="preserve" xmlns="http://www.w3.org/2000/svg">
<style type="text/css">
	.st0{fill:#A5BD2B;}
	.st1{fill:#FFFFFF;}
</style>
<path class="st0" d="m442.7 164.9h-455.5c-15.6 0-28.2 12.7-28.2 28.3v455.5c0 15.6 12.7 28.2 28.3 28.2h455.5c15.6 0 28.3-12.6 28.3-28.3v-455.5c-0.1-15.6-12.8-28.2-28.4-28.2z"/>

	
		<path class="st1" d="m367.7 280.3h-302.7c-17.8 0-32.3 14.5-32.3 32.3v215.2c0 17.7 14.4 32.3 32.3 32.3h302.7c17.7 0 32.3-14.4 32.3-32.3v-215.2c0-17.8-14.4-32.3-32.3-32.3zm-4.4 21.5-146.3 146.2-147.5-146.2h293.8zm-309.1 221.5v-206.4l103.6 102.8-103.6 103.6zm15.2 15.3 103.7-103.7 36.3 36c4.2 4.2 11 4.2 15.2 0l35.4-35.4 103.2 103.2h-293.8zm309.1-15.3-103.2-103.1 103.2-103.2v206.3z"/>
	

</svg>
