<?xml version="1.0" encoding="UTF-8"?>
<svg enable-background="new -248 371.4 97.3 99.5" version="1.1" viewBox="-248 371.4 97.3 99.5" xml:space="preserve" xmlns="http://www.w3.org/2000/svg">
<style type="text/css">
	.st0{fill:#704F88;}
	.st1{fill:#6C4B85;}
</style>

	<path class="st0" d="m-201.3 371.4c-1 1.1-1.6 2.7-3.7 2.4 0.5-1 0.9-1.8 1.8-2.4h1.9z"/>
	<path class="st1" d="m-182.4 436.8c2.9-0.7 5.5-1.3 8.5-2-6.8-2.2-13.3-4.4-20.1-6.7 2.3 6.8 4.4 13.3 6.6 19.8h0.2c0.6-2.6 1.2-5.3 1.8-7.9 0.4 0 0.6 0.3 0.8 0.5 2.5 2.5 5 5 7.6 7.5 0.5 0.5 0.6 0.8 0 1.3-13.8 11.9-35.8 10.2-47.6-3.6-6.2-7.2-9-15.5-8.4-25 0.7-15.6 12.8-28.9 28.3-31.3 17.7-2.9 34.5 8 38.7 25.4 2.7 11.1 0.3 21.1-6.8 30.1-0.6 0.7-0.9 0.8-1.5 0.1-2.6-2.7-5.2-5.3-8.1-8.2zm-16.8-13.8c0.5 0.1 0.8 0.2 1.1 0.3l18 6c1 0.3 1.3 0.4 1.3-0.9-0.1-3.6-0.1-7.3 0-10.9 0-1.2-0.4-1.3-1.4-1.3-3.7 0.1-7.4 0-11.2 0-0.8 0-1.1-0.2-1.1-1.1v-11.5c0-0.8-0.2-1.1-1.1-1.1h-11.5c-0.8 0-1 0.2-1 1v11.4c0 1-0.2 1.3-1.2 1.3-3.8-0.1-7.6 0-11.4 0-0.8 0-1.1 0.2-1.1 1.1 0 3.8 0.1 7.6 0 11.4 0 0.9 0.3 1.1 1.2 1.1h11.4c0.9 0 1.1 0.3 1.1 1.1v11.5c0 0.5-0.1 1 0.7 1h12.8c-2-6.8-4.3-13.5-6.6-20.4z"/>
	<path class="st0" d="m-160.3 403.1c-1.6 0-2.7 0.4-3.8 0.6-0.7 0.1-1.2 0.3-1.7-0.5-0.4-0.8 0.2-1.1 0.6-1.4 2.1-1.8 4.3-3.6 6.5-5.5 0.2 0.4 0.4 0.7 0.6 1 0.5 0.7 0.4 1.2-0.3 1.7-1 0.7-2 1.5-3.2 2.5 1.6-0.1 2.8-0.6 4.1-0.8 0.6-0.1 1-0.3 1.4 0.4s-0.2 0.9-0.6 1.2c-0.9 0.8-1.8 1.6-2.7 2.7 1.2-0.3 2.4-0.7 3.6-1 0.9-0.3 1.5 0.1 1.8 1.3 0.2 0.9-0.7 0.7-1 0.8-2.4 0.7-4.8 1.2-7.2 1.9-0.6 0.2-1 0.2-1.3-0.5-0.4-0.7 0-1 0.4-1.4 0.8-1.1 1.7-1.9 2.8-3z"/>
	<path class="st0" d="m-150.9 420.2v1.4c-0.1 2.4-2 3.5-4.1 2.4-0.4-0.2-0.6-0.1-0.9 0.1-1.9 1.3-4.1 0.3-4.3-2-0.1-1.1-0.1-2.3-0.2-3.5-0.1-0.6 0.2-0.8 0.8-0.8 2.5-0.1 5.1-0.2 7.6-0.4 0.9-0.1 1.1 0.3 1.1 1.1-0.1 0.6-0.1 1.2 0 1.7zm-3.8 0.5c0.1 0.7-0.2 1.7 1 1.7 0.7 0 1.1-0.6 0.9-1.2-0.1-0.6 0.4-1.6-0.8-1.5-0.6 0-1.3 0-1.1 1zm-1.7 0.6c0-0.8 0.1-1.6-1.1-1.4-0.6 0.1-1.2 0-1 0.9 0.1 0.7-0.2 1.9 1.1 1.9 0.9-0.1 1.1-0.8 1-1.4z"/>
	<path class="st0" d="m-160.9 450.6c-0.6 0-1.1-0.2-1.6-0.5-1-0.6-2-1.2-3-1.9-1.6-1.1-1.9-2.4-1-4 0.5-1 1.2-1.9 1.8-2.9 0.3-0.4 0.5-0.5 1-0.2 2.3 1.5 4.6 2.9 6.9 4.3 0.4 0.2 0.5 0.4 0.2 0.8-0.7 1.1-1.3 2.2-2.1 3.2-0.6 0.9-1.3 1.3-2.2 1.2zm1.7-3.8c0-0.4-0.4-0.4-0.6-0.6-1.1-0.7-2.2-1.4-3.2-2-0.4-0.3-0.9-0.9-1.3 0-0.3 0.7-1.3 1.4-0.2 2.2 0.9 0.6 1.9 1.2 2.8 1.8 0.4 0.3 0.8 0.5 1.3 0.2 0.6-0.4 0.9-1.1 1.2-1.6z"/>
	<path class="st0" d="m-151.1 430.4c-0.1 0.3-0.1 0.9-0.3 1.5-0.4 1.6-1.5 2.4-3.2 2.2-1.4-0.2-2.8-0.4-4.2-0.7s-2.2-1.3-2.2-2.7c0-0.8 0.1-1.6 0.4-2.3 0.5-1.2 1.5-1.9 2.8-1.7 1.5 0.2 2.9 0.4 4.4 0.7 1.6 0.1 2.3 1.1 2.3 3zm-1.9 0.1c0.1-0.8-0.2-1.2-1-1.3-1.2-0.2-2.4-0.4-3.5-0.6-0.9-0.2-1.3 0.2-1.4 1-0.3 0.8-0.3 1.5 0.8 1.7s2.3 0.4 3.4 0.6c1.2 0.1 1.6-0.1 1.7-1.4z"/>
	<path class="st0" d="m-225.3 464.1c-0.5-0.4-1-0.6-1.4-1s0.1-0.6 0.2-0.9l0.6-0.9c1-1.4 1-1.4-0.3-2.5-0.7-0.6-1.2-0.6-1.6 0.2-0.2 0.4-0.6 0.7-0.8 1.2-0.5 0.9-0.9 0.8-1.7 0.2-0.6-0.5-0.6-0.8-0.1-1.3 1.5-2 3-4 4.5-6 0.5-0.7 0.8-0.6 1.4-0.2 0.5 0.4 0.9 0.7 0.3 1.4-0.3 0.3-0.5 0.8-0.9 1.1-0.9 0.9-0.7 1.5 0.3 2.2 0.9 0.7 1.4 0.8 2-0.3 0.2-0.4 0.6-0.7 0.8-1.1 0.5-1 1-0.8 1.7-0.2 0.4 0.4 0.6 0.6 0.2 1.1-1.6 2.1-3.2 4.3-4.8 6.4-0.1 0.2-0.2 0.4-0.4 0.6z"/>
	<path class="st0" d="m-237.3 396.7c0 0.7 0 1.2-0.9 1.3s-1.1 0.9-1.3 1.7c-0.2 0.7 0.5 0.9 0.9 1.2l3 1.8c0.5 0.3 0.9 0.3 1.3-0.2s0.9-1 0.6-1.7c-0.3-0.6-1-0.7-1.3-0.1-0.4 0.7-0.8 0.6-1.3 0.2-0.7-0.4-0.4-0.8-0.1-1.3 1.5-2.5 1.5-2.6 3.9-0.8 0.9 0.7 1.3 1.6 0.9 2.7-0.3 1-0.8 1.8-1.5 2.6-0.9 0.9-1.9 1.1-3.1 0.5-1.4-0.8-2.8-1.6-4.1-2.5-1.1-0.7-1.5-1.8-1-3 0.6-1.4 1.2-3 3.1-3.2 0.6-0.1 1.1 0 0.9 0.8z"/>
	<path class="st0" d="m-196.3 380.8c-0.1 1.5 0.3 2 1.7 1.9 0.6 0 0.9-0.4 1-1 0.1-0.7-0.4-0.7-0.8-0.7-0.8 0-0.6-0.5-0.6-1 0-0.6 0.2-0.8 0.8-0.7h0.4c0.8 0.5 2.5-0.8 2.5 1.3 0 3.1-1.2 4-3.3 3.9-0.5 0-1-0.1-1.5-0.2-1.4-0.3-2.2-1.2-2.1-2.6 0.1-1.7 0.3-3.3 0.5-5 0-0.3 0.2-0.7 0.4-1 1-1.4 2.4-1.1 3.8-1 1.2 0.1 2 0.7 2.5 1.7 0.1 0.3 0.3 0.6-0.1 0.7-0.6 0.1-1.2 0.9-1.7 0.2-0.4-0.6-1-0.7-1.6-0.8-0.9-0.1-1.3 0.2-1.4 1.1-0.3 1.1-0.4 2.2-0.5 3.2z"/>
	<path class="st0" d="m-177.8 390.2c-1.2-0.2-2.4-0.8-3.3-2-0.6-0.8-0.6-1.7-0.1-2.6 0.8-1.4 1.5-2.7 2.3-4 0.7-1.2 1.9-1.6 3.2-1 1.4 0.6 2.9 1.2 3.1 3 0.1 0.4 0.3 1.1-0.4 1-0.6 0-1.4 0.4-1.7-0.6-0.1-0.4-0.2-0.7-0.6-1-1.2-0.9-1.7-0.8-2.4 0.5-0.6 1-1.1 1.9-1.7 2.9-0.3 0.5-0.3 0.9 0.2 1.3 0.5 0.3 1 0.9 1.7 0.6s0.7-1 0.1-1.4c-0.7-0.4-0.5-0.7-0.2-1.3s0.6-0.6 1.1-0.2c0.2 0.1 0.4 0.2 0.5 0.3 0.5 0.6 1.9 0.4 1.7 1.5-0.2 1.6-1.9 3-3.5 3z"/>
	<path class="st0" d="m-185.8 386.4c-0.9-0.1-1.8-0.4-2.7-0.9-1.1-0.7-1.5-1.8-1.2-3 0.6-2 1.3-3.9 1.9-5.9 0.3-1 0.9-0.5 1.4-0.4 0.6 0.1 0.8 0.4 0.6 1.1-0.6 1.7-1.1 3.5-1.7 5.2-0.3 0.9-0.2 1.4 0.8 1.7 0.9 0.3 1.5 0.2 1.8-0.9 0.5-1.8 1.1-3.5 1.7-5.2 0.2-0.7 0.5-0.8 1.2-0.6 0.6 0.2 1.2 0.3 0.8 1.2-0.7 1.9-1.2 3.9-1.9 5.8-0.4 1.3-1.4 2-2.7 1.9z"/>
	<path class="st0" d="m-234.9 407.3c-0.6 1.6-1.2 3.2-1.7 4.8-0.2 0.5-0.5 0.3-0.8 0.2l-7.5-2.7c-0.6-0.2-0.7-0.5-0.5-1 0.5-1.4 1.1-2.8 1.5-4.3 0.3-0.8 0.7-0.5 1.2-0.4 0.5 0.2 0.9 0.3 0.6 1s-0.5 1.5-0.8 2.2 0.1 0.9 0.6 1.1 1 0.4 1.2-0.4c0.1-0.5 0.3-0.9 0.5-1.4 0.2-0.6 0.3-1.1 1.2-0.8 0.8 0.3 0.9 0.7 0.6 1.4-0.2 0.3-0.2 0.7-0.4 1-0.3 0.7-0.3 1.1 0.6 1.4s1.1 0 1.3-0.8c0.2-0.7 0.5-1.3 0.7-2 0.2-0.5 0.4-0.6 0.9-0.4 0.2 0.5 0.9 0.3 0.8 1.1z"/>
	<path class="st0" d="m-205 384.4c-0.8 0.3-1-0.2-1.1-1-0.2-2.5-0.5-4.9-0.8-7.4-0.1-0.7 0.1-1 0.9-1 1.4-0.1 2.9-0.2 4.3-0.4 0.8-0.2 0.9 0.2 0.9 0.8s0.1 1-0.7 1c-0.7 0-1.4 0.2-2 0.2-0.8 0-1.1 0.3-1 1.1 0.1 1 0.6 0.8 1.2 0.7h1.2c0.7-0.1 1 0 1.1 0.8s-0.2 1.1-1 1.1c-0.4 0-0.7 0-1.1 0.1-0.6 0-1.2-0.1-1.1 1 0.1 0.9 0.5 1.1 1.3 0.9 0.5-0.1 1.1 0 1.7-0.2 0.8-0.2 1.1 0 1.2 0.9 0.1 1-0.5 0.9-1 1-1.3 0.2-2.5 0.3-4 0.4z"/>
	<path class="st0" d="m-159.7 412.9 0.6 2.4c0.2 0.8-0.3 0.9-0.9 1.1s-0.9 0-1-0.6c-0.3-1.4-0.7-2.9-1.1-4.3-0.2-0.6-0.1-0.8 0.6-1 2.5-0.6 5-1.3 7.5-1.9 0.6-0.2 0.9-0.2 1.1 0.6 0.3 1.4 0.7 2.9 1.1 4.3 0.2 0.8-0.2 0.8-0.7 1-0.6 0.2-1 0.2-1.1-0.6-0.1-0.7-0.3-1.3-0.5-2-0.1-0.6-0.3-1.1-1.2-0.9-0.8 0.2-0.9 0.6-0.7 1.3l0.3 1.2c0.2 0.7 0.2 1.1-0.7 1.3-0.8 0.2-1.1-0.1-1.2-0.8-0.1-0.5-0.3-1.1-0.4-1.6-0.2-0.8-0.8-0.3-1.2-0.2-0.2-0.1-0.8 0-0.5 0.7z"/>
	<path class="st0" d="m-238.9 443.5c-0.3-0.7-0.6-1.3-1-1.9-0.5-0.8 0.1-0.9 0.6-1.2 0.6-0.3 0.9-0.3 1.2 0.4 0.1 0.4 0.4 0.7 0.5 1.1 0.3 1.1 0.9 1 1.8 0.5 0.5-0.3 0.5-0.5 0.2-0.9-0.4-0.7-0.7-1.5-1.1-2.2s0.1-0.8 0.5-1 0.8-0.6 1.2 0.2c0.7 1.4 1.4 2.9 2.1 4.3 0.3 0.5 0 0.6-0.3 0.8-2.4 1.2-4.9 2.4-7.3 3.7-0.5 0.2-0.7 0.1-0.9-0.3l-2.1-4.2c-0.3-0.6-0.1-0.8 0.4-1 0.4-0.2 0.9-0.7 1.3 0.1l1.2 2.4c0.2 0.3 0.4 0.5 0.7 0.3 0.3-0.5 0.9-0.5 1-1.1z"/>
	<path class="st0" d="m-231.4 389.3c-0.6 0.7-1.2 1.5-1.9 2.1-0.6 0.5-0.5 0.8 0.1 1.3 0.5 0.5 0.9 0.5 1.3-0.1 0.2-0.4 0.6-0.6 0.9-1 0.4-0.5 0.7-0.8 1.4-0.2 0.6 0.6 0.6 0.9 0 1.4-0.3 0.2-0.5 0.5-0.7 0.8-0.8 0.9-0.7 1.3 0.4 2 0.4 0.3 0.6-0.1 0.8-0.3 0.6-0.6 1.2-1.2 1.7-1.9 0.6-0.7 0.9-0.1 1.2 0.2 0.5 0.3 0.6 0.6 0.1 1.1-1.1 1.3-2.1 2.4-3.1 3.6-0.4 0.4-0.6 0.4-1.1 0-2-1.8-3.9-3.6-5.9-5.4-0.4-0.4-0.4-0.6 0-1 1.1-1.1 2.1-2.3 3.2-3.4 0.2-0.2 0.4-0.5 0.8-0.2 0.2 0.3 0.7 0.5 0.8 1z"/>
	<path class="st0" d="m-211.5 376.3c0.2 0 0.6 0.1 0.9 0.2 0.5 0.2 1.3 0.5 1 1s-0.7 1.6-1.8 0.8c-0.4-0.3-1-0.1-1.4 0.2-0.2 0.2-0.3 0.5-0.2 0.8 0.2 0.5 0.7 0.6 1.2 0.7 0.6 0.1 1.2 0.1 1.8 0.2 1.4 0.3 2.2 1.2 2.3 2.6s-0.5 2.3-1.9 2.8c-1.1 0.4-2.2 0.7-3.3-0.1-0.3-0.2-0.9-0.4-0.6-0.9 0.3-0.4 0.6-1.2 1.5-0.9 0.3 0.1 0.5 0.3 0.8 0.3 0.6 0 1.3-0.1 1.4-0.9s-0.5-1-1.1-1.1c-0.4-0.1-0.8 0-1.2-0.1-2-0.3-3.1-1.4-3-3.1 0-1.3 1.5-2.5 3.6-2.5z"/>
	<path class="st0" d="m-229.6 386.5c0-1.9 2.5-3.7 4.3-3 0.3 0.1 0.8 0.3 0.5 0.7s-0.1 1.3-1 1.2c-0.3 0-0.6-0.1-0.9 0-0.5 0.3-0.9 0.6-0.7 1.2s0.7 0.6 1.2 0.5c0.6-0.1 1.2-0.3 1.9-0.5 1.5-0.3 2.7 0.4 3.3 1.7 0.6 1.2 0.2 2.4-1 3.4-0.9 0.7-1.8 1.2-3 0.9-0.4-0.1-1.1-0.1-0.8-0.7 0.2-0.5 0.1-1.4 1.1-1.3 0.2 0 0.4 0.1 0.6 0.1 0.6-0.2 1.4-0.5 1.2-1.4-0.1-0.7-0.8-0.8-1.4-0.6-0.7 0.2-1.3 0.3-2 0.4-1.9 0.4-3.4-0.9-3.3-2.6z"/>
	<path class="st0" d="m-169.3 450.1c-0.1-0.2-0.2-0.5-0.4-0.7-0.2-0.4-0.3-0.7 0.1-1 1.1-1.2 1.1-1.2 1.9 0.2 1.2 2.2 2.3 4.4 3.5 6.5 0.3 0.5 0.4 0.9-0.1 1.5-0.5 0.5-0.8 0.4-1.4 0.1-2.3-1.2-4.7-2.3-7-3.4-0.3-0.2-1.2-0.3-0.7-1 0.6-0.9 0.6-1.4 1.7-0.9 0.9 0.4 2.4-0.5 2.4-1.3zm2 3.6c0.2-0.2-0.4-1-0.7-1.5-0.1-0.2-0.2-0.5-0.5-0.3-0.2 0.1-0.4 0.4-0.5 0.6s0.1 0.3 0.3 0.4c0.5 0.3 0.9 0.5 1.4 0.8z"/>
	<path class="st0" d="m-219.3 389.4c-0.6 0-0.3-0.5-0.3-0.8-0.1-2.1-0.1-4.1-0.2-6.2 0-0.9-0.3-1.2-1.1-0.6-0.3 0.2-0.6 0.3-0.8 0.4-0.6 0.4-0.9 0.4-1.3-0.3s-0.2-1 0.5-1.4c1.3-0.6 2.5-1.2 3.7-1.9 0.7-0.4 1-0.4 1 0.6 0 2 0.1 4.1 0.1 6.1 0 1.2 0 1.2 1.2 0.7 0.2-0.1 0.5-0.3 0.7-0.4 1.2-0.6 1.3-0.6 1.8 0.7 0.1 0.3 0.1 0.5-0.2 0.7l-4.8 2.4h-0.3z"/>
	<path class="st0" d="m-170.3 384.1c2.6 0.8 1.5 2.7 1.1 4.4 0.9 0 1.5-0.4 2.1-0.7 0.8-0.3 2 0.2 2.4 0.9 0.2 0.3 0 0.4-0.3 0.5-0.5 0.2-1 0.4-1.6 0.6-2.3 0.6-4.3 1.7-5.6 3.7-0.5 0.8-0.9 0.5-1.4 0-0.5-0.4-0.9-0.8-0.2-1.4 1.9-1.6 2.7-3.7 3-6.2 0.1-0.5 0.3-1.1 0.5-1.8z"/>
	<path class="st0" d="m-237.9 430.6c0.4 0 0.5 0.3 0.6 0.5 0.4 1.5 0.8 3.1 1.3 4.6 0.1 0.5 0 0.6-0.4 0.8-2.6 0.7-5.3 1.5-7.9 2.3-1 0.3-0.7-0.6-0.9-1-0.3-0.5-0.3-0.9 0.4-1 1.9-0.5 3.7-1.1 5.6-1.6 0.8-0.2 1-0.5 0.7-1.3-0.2-0.6-0.3-1.1-0.5-1.7-0.3-1.1 0.1-1.7 1.1-1.6z"/>
	<path class="st0" d="m-175.2 456.2c-0.7 0.5-1.5 1-2.2 1.6-0.6 0.5-1 0.6-1.5-0.2-0.6-0.8-0.2-1 0.4-1.4 1.1-0.8 2.3-1.6 3.4-2.4 0.5-0.4 0.8-0.3 1.1 0.2l4.5 6.3c0.6 0.8 0.1 1-0.4 1.4-0.6 0.5-0.9 0.5-1.4-0.2-1.1-1.6-2.2-3.1-3.3-4.7-0.2-0.3-0.3-0.6-0.6-0.6z"/>
	<path class="st0" d="m-153.1 438.1c-0.1 1.2-0.7 1.6-1.7 1.2-1.6-0.6-3.2-1.2-4.8-1.9-0.9-0.4-1.4-0.2-1.6 0.8-0.1 0.5-0.4 1-0.6 1.6-0.2 0.8-0.5 0.9-1.3 0.6-0.9-0.3-0.7-0.7-0.5-1.3 0.5-1.3 1-2.5 1.4-3.8 0.2-0.5 0.4-0.9 1.1-0.6 2.4 1 4.9 1.9 7.4 2.8 0.3 0.1 0.7 0.1 0.6 0.6z"/>
	<path class="st0" d="m-238.6 448.4c0.5 0 0.6 0.4 0.8 0.6 0.4 0.8 0.9 0.7 1.5 0.2 1.5-1.2 3-2.2 4.5-3.4 0.7-0.6 1-0.2 1.4 0.4 0.4 0.5 0.6 0.9-0.1 1.3-1.6 1.1-3.1 2.3-4.6 3.4-0.7 0.5-0.7 0.8-0.2 1.4 0.4 0.4 0.7 0.8-0.1 1.3-0.6 0.4-0.9 0.6-1.4-0.1-0.8-1.2-1.7-2.2-2.5-3.4-0.2-0.2-0.6-0.5-0.3-0.8 0.2-0.3 0.7-0.6 1-0.9z"/>
	<path class="st0" d="m-198.7 466.4c0 0.8-0.1 1.6-0.1 2.4 0 0.4-0.1 0.8-0.3 1.1-0.6 0.9-2.2 1.2-3.7 0.7-1.1-0.4-1.6-1.1-1.5-2.3 0.1-1.4 0.2-2.8 0.2-4.2 0-0.4 0.1-0.7 0.3-1 0.6-0.9 2.3-1.2 3.8-0.7 1.1 0.4 1.5 1.2 1.4 2.3 0 0.6 0 1.2-0.1 1.7zm-1.2-0.9v-0.5c0.2-1-0.2-1.6-1.3-1.6-1.1-0.1-1.5 0.4-1.5 1.5s-0.1 2.2-0.2 3.3c-0.1 1 0.4 1.3 1.3 1.4 0.9 0 1.5-0.2 1.5-1.2 0-0.9 0.1-1.8 0.2-2.9z"/>
	<path class="st0" d="m-208.5 461.4c2.5 0 3.6 1.3 3.1 3.4-0.2 0.8-0.8 1.3-1.5 1.5-0.9 0.3-1.8 0.6-2.6 0.9-0.4 0.1-0.7 0.5-0.6 0.9s0.5 0.4 0.8 0.4c0.8 0.2 1.6 0.4 2.5 0.5 0.4 0.1 0.7 0.2 0.6 0.7-0.1 0.4-0.3 0.6-0.7 0.5-1.4-0.3-2.9-0.6-4.3-0.9-0.2 0-0.4-0.1-0.4-0.3-0.2-1 0.7-2.6 1.7-3 0.7-0.3 1.5-0.5 2.3-0.7 0.7-0.2 1.2-0.7 1.2-1.4 0-0.6-0.3-0.9-0.8-1-0.7-0.2-1.3-0.3-1.7 0.6-0.2 0.6-0.7 0.2-1 0.1-0.5-0.1-0.3-0.5-0.2-0.8 0.1-1 0.9-1.4 1.6-1.4z"/>
	<path class="st0" d="m-226.5 450.9c-0.2 0.2-0.4 0.4-0.5 0.6-1.9 1.8-3.8 3.6-5.7 5.5-0.6 0.6-0.9 0.2-1.2-0.2s-1.1-0.7-0.3-1.4c1.9-1.8 3.8-3.6 5.7-5.5 0.2-0.2 0.4-0.7 0.9-0.3 0.4 0.4 0.7 0.8 1.1 1.3z"/>
	<path class="st0" d="m-169 398.1c-0.6-0.2-0.8-0.8-1.2-1.2-0.3-0.3 0-0.6 0.2-0.8 2-1.8 4-3.5 6-5.3 0.6-0.5 0.9-0.2 1.2 0.2s0.9 0.7 0.2 1.3c-2.1 1.8-4.1 3.6-6.1 5.3 0 0.3-0.2 0.4-0.3 0.5z"/>
	<path class="st0" d="m-236.1 390.2c-0.7-1.7-0.6-3.1 1.2-4.1-0.2 1.4 0.4 3-1.2 4.1z"/>
	<path class="st0" d="m-181.4 375.4c0 0.6-0.3 1-0.9 1.1-0.6 0-1.1-0.3-1.1-1 0-0.6 0.4-1 1-1 0.6-0.1 1 0.3 1 0.9z"/>
	<path class="st0" d="m-185 375.6c-0.6-0.1-1-0.4-1-1 0-0.7 0.5-1 1.1-1s0.9 0.5 0.9 1.1-0.4 0.8-1 0.9z"/>

<path class="st0" d="m-185.2 464.6c0.2 0.8 0.3 1.6 0.5 2.3 0.1 0.4 0.1 0.8 0 1.2-0.4 1-1.8 1.7-3.4 1.6-1.2-0.1-1.8-0.7-2-1.8-0.3-1.4-0.6-2.7-0.9-4.1-0.1-0.4-0.1-0.7 0-1.1 0.3-1 1.9-1.8 3.5-1.7 1.2 0.1 1.8 0.8 2 1.9 0 0.6 0.1 1.1 0.3 1.7zm-1.5-0.6s-0.1-0.2-0.1-0.5c-0.1-1-0.6-1.5-1.7-1.3s-1.4 0.8-1.1 1.8c0.3 1.1 0.5 2.2 0.7 3.3 0.2 1 0.8 1.2 1.7 1s1.4-0.5 1.1-1.6c-0.2-0.7-0.4-1.6-0.6-2.7z"/>
<path class="st0" d="m-196 462.2c2.5-0.6 3.8 0.4 3.8 2.5 0 0.9-0.4 1.4-1.1 1.9-0.8 0.5-1.6 1-2.3 1.5-0.3 0.2-0.6 0.6-0.4 1.1 0.2 0.4 0.6 0.2 0.8 0.2 0.8 0 1.7-0.1 2.5-0.1 0.4 0 0.7 0 0.8 0.5 0 0.5-0.1 0.7-0.6 0.7-1.5 0.1-2.9 0.1-4.4 0.2-0.2 0-0.4 0-0.5-0.2-0.4-0.9 0-2.7 0.9-3.4 0.6-0.5 1.3-0.9 2-1.3 0.6-0.4 1-0.9 0.8-1.7-0.1-0.6-0.5-0.8-1-0.8-0.7 0-1.3 0.1-1.5 1-0.1 0.6-0.6 0.4-1 0.4-0.5 0-0.4-0.4-0.4-0.7 0.2-1 0.9-1.5 1.6-1.8z"/>
<path class="st0" d="m-243.6 427.5c-0.1-0.7-0.1-1.5-0.3-2.2-0.2-0.9 0.4-0.8 0.9-0.9 0.6-0.1 1 0 1 0.7 0 0.4 0.1 0.8 0.1 1.2-0.1 1.2 0.5 1.3 1.5 1.1 0.6-0.1 0.6-0.3 0.5-0.8-0.1-0.8-0.2-1.7-0.3-2.5-0.1-0.7 0.4-0.7 0.9-0.7s1-0.2 1 0.5c0.2 1.6 0.3 3.2 0.6 4.8 0.1 0.5-0.2 0.6-0.6 0.6-2.7 0.3-5.4 0.6-8.1 1-0.5 0.1-0.7-0.1-0.7-0.6-0.2-1.5-0.3-3.1-0.6-4.6-0.1-0.6 0.2-0.8 0.7-0.8s1.1-0.3 1.2 0.5c0.1 0.9 0.2 1.7 0.3 2.6 0 0.4 0.2 0.6 0.6 0.5s1 0.1 1.3-0.4z"/>
<path class="st0" d="m-246.7 421.3c-1.4-1.2-1.2-4.3 0.5-5.2 0.3-0.2 0.8-0.4 0.9 0.1s0.9 0.9 0.3 1.5c-0.2 0.2-0.5 0.4-0.6 0.7-0.1 0.6-0.1 1.1 0.4 1.3 0.6 0.2 0.9-0.1 1.2-0.6s0.6-1.1 0.9-1.8c0.8-1.3 2.1-1.8 3.4-1.4 1.3 0.3 1.9 1.4 1.9 3-0.1 1.1-0.3 2.1-1.3 2.9-0.3 0.2-0.8 0.8-1.1 0.1-0.2-0.5-1-1-0.3-1.7 0.1-0.2 0.3-0.2 0.5-0.4 0.2-0.6 0.5-1.4-0.3-1.8-0.6-0.4-1.1 0.1-1.4 0.7-0.3 0.7-0.6 1.2-1 1.8-0.8 1.7-2.8 2-4 0.8z"/>
</svg>
